<svg width="80" height="80" viewBox="0 0 80 80" fill="none" xmlns="http://www.w3.org/2000/svg">
<path fill-rule="evenodd" clip-rule="evenodd" d="M40 80C62.0914 80 80 62.0914 80 40C80 17.9086 62.0914 0 40 0C17.9086 0 0 17.9086 0 40C0 62.0914 17.9086 80 40 80Z" fill="#FEDC5A" fill-opacity="0.1"/>
<path d="M56.2964 44.8888V25.3332C56.7286 25.3332 57.1432 25.1615 57.4488 24.8559C57.7544 24.5503 57.9261 24.1358 57.9261 23.7036C57.9261 23.2714 57.7544 22.8569 57.4488 22.5513C57.1432 22.2457 56.7286 22.074 56.2964 22.074H23.7038C23.2716 22.074 22.8571 22.2457 22.5515 22.5513C22.2459 22.8569 22.0742 23.2714 22.0742 23.7036C22.0742 24.1358 22.2459 24.5503 22.5515 24.8559C22.8571 25.1615 23.2716 25.3332 23.7038 25.3332V44.8888C23.2716 44.8888 22.8571 45.0605 22.5515 45.3661C22.2459 45.6717 22.0742 46.0862 22.0742 46.5184C22.0742 46.9506 22.2459 47.3651 22.5515 47.6707C22.8571 47.9764 23.2716 48.148 23.7038 48.148H38.3705V50.5925L32.5038 54.9925C32.3326 55.1209 32.1884 55.2818 32.0794 55.4659C31.9703 55.6501 31.8986 55.8539 31.8684 56.0657C31.8073 56.4936 31.9186 56.9282 32.1779 57.274C32.4372 57.6197 32.8233 57.8483 33.2512 57.9094C33.679 57.9706 34.1136 57.8592 34.4594 57.5999L38.3705 54.6666V56.2962C38.3705 56.7284 38.5422 57.1429 38.8478 57.4485C39.1534 57.7541 39.5679 57.9258 40.0001 57.9258C40.4323 57.9258 40.8469 57.7541 41.1525 57.4485C41.4581 57.1429 41.6298 56.7284 41.6298 56.2962V54.6666L45.5409 57.5999C45.8866 57.8592 46.3213 57.9706 46.7491 57.9094C47.177 57.8483 47.563 57.6197 47.8224 57.274C48.0817 56.9282 48.193 56.4936 48.1319 56.0657C48.0708 55.6379 47.8422 55.2518 47.4964 54.9925L41.6298 50.5925V48.148H56.2964C56.7286 48.148 57.1432 47.9764 57.4488 47.6707C57.7544 47.3651 57.9261 46.9506 57.9261 46.5184C57.9261 46.0862 57.7544 45.6717 57.4488 45.3661C57.1432 45.0605 56.7286 44.8888 56.2964 44.8888ZM26.9631 44.8888V25.3332H53.0372V44.8888H26.9631Z" fill="#FEDC5A"/>
<path d="M45.3619 30.6948L41.63 34.443L39.5278 32.3245C39.3763 32.1717 39.1961 32.0505 38.9975 31.9678C38.7989 31.885 38.5859 31.8424 38.3708 31.8424C38.1556 31.8424 37.9426 31.885 37.7441 31.9678C37.5455 32.0505 37.3652 32.1717 37.2137 32.3245L32.3248 37.2134C32.095 37.4413 31.9383 37.7325 31.8746 38.0499C31.8109 38.3672 31.8432 38.6964 31.9674 38.9953C32.0915 39.2943 32.3018 39.5495 32.5715 39.7284C32.8413 39.9074 33.1582 40.0019 33.4819 40C34.3782 40 34.3619 39.7882 38.3708 35.7793L40.473 37.8978C40.6245 38.0505 40.8047 38.1718 41.0033 38.2545C41.2019 38.3372 41.4149 38.3798 41.63 38.3798C41.8452 38.3798 42.0582 38.3372 42.2567 38.2545C42.4553 38.1718 42.6356 38.0505 42.7871 37.8978L47.676 33.0089C47.9828 32.702 48.1552 32.2858 48.1552 31.8519C48.1552 31.4179 47.9828 31.0017 47.676 30.6948C47.3691 30.388 46.9529 30.2156 46.5189 30.2156C46.0849 30.2156 45.6687 30.388 45.3619 30.6948Z" fill="#FEDC5A"/>
</svg>
