<svg width="81" height="80" viewBox="0 0 81 80" fill="none" xmlns="http://www.w3.org/2000/svg">
<path fill-rule="evenodd" clip-rule="evenodd" d="M40.5 80C62.5914 80 80.5 62.0914 80.5 40C80.5 17.9086 62.5914 0 40.5 0C18.4086 0 0.5 17.9086 0.5 40C0.5 62.0914 18.4086 80 40.5 80Z" fill="#FEDC5A" fill-opacity="0.1"/>
<g clip-path="url(#clip0_1056_373)">
<path d="M56.2522 36.393C55.9756 36.3927 55.6993 36.3737 55.4253 36.3361C53.8102 36.1194 52.2205 35.2997 50.9503 34.0295C49.6801 32.7585 48.8604 31.1696 48.6428 29.5537C48.4108 27.8276 48.9074 26.2071 50.0069 25.1076C51.1065 24.008 52.7269 23.5106 54.453 23.7435C56.0689 23.9611 57.6587 24.7799 58.9289 26.0509C60.1991 27.322 61.0188 28.9109 61.2363 30.5259C61.4684 32.2529 60.9709 33.8734 59.8723 34.9729C58.9506 35.8937 57.6623 36.393 56.2522 36.393ZM52.8651 32.1139C53.7055 32.9553 54.7708 33.5159 55.7873 33.6486C56.6819 33.7695 57.4529 33.5583 57.9539 33.0537C58.4549 32.549 58.6698 31.779 58.5488 30.887C58.4125 29.8705 57.8519 28.8053 57.0141 27.9648C55.3792 26.3299 53.0465 25.8984 51.9217 27.0223C50.7968 28.1463 51.2293 30.479 52.8651 32.1139Z" fill="#FEDC5A"/>
<path d="M36.9055 55.7393C36.6292 55.7392 36.3532 55.7205 36.0794 55.6833C34.4635 55.4657 32.8737 54.6469 31.6036 53.3758C30.3334 52.1048 29.5137 50.5159 29.2961 48.9009C29.0641 47.1739 29.5615 45.5534 30.6602 44.4539C30.9142 44.1998 31.2587 44.0571 31.618 44.0571C31.9773 44.0571 32.3218 44.1998 32.5758 44.4539C32.8299 44.7079 32.9726 45.0524 32.9726 45.4117C32.9726 45.771 32.8299 46.1155 32.5758 46.3695C32.0712 46.8733 31.8599 47.6442 31.98 48.5362C32.1172 49.5527 32.6778 50.6179 33.5147 51.4584C35.1577 53.0996 37.4859 53.5284 38.6108 52.4045C38.7357 52.2751 38.8851 52.172 39.0503 52.101C39.2155 52.03 39.3932 51.9927 39.573 51.9911C39.7528 51.9896 39.9311 52.0238 40.0976 52.0919C40.264 52.16 40.4152 52.2605 40.5423 52.3877C40.6695 52.5148 40.77 52.666 40.8381 52.8324C40.9062 52.9989 40.9405 53.1772 40.9389 53.357C40.9373 53.5368 40.9 53.7145 40.829 53.8797C40.758 54.0449 40.6549 54.1943 40.5255 54.3192C39.6038 55.2409 38.3174 55.7393 36.9055 55.7393Z" fill="#FEDC5A"/>
<path d="M26.2825 60.0506C26.0798 60.0506 25.8797 60.005 25.6969 59.9173C25.5142 59.8296 25.3534 59.7019 25.2266 59.5438C25.0997 59.3857 25.01 59.2011 24.964 59.0037C24.918 58.8062 24.917 58.601 24.9609 58.4031C24.9843 58.2975 25.5441 55.7851 26.3213 53.0136C27.7802 47.8137 28.6604 46.4533 29.2643 45.8493L50.007 25.1075C50.132 24.9782 50.2814 24.875 50.4466 24.804C50.6118 24.7331 50.7895 24.6957 50.9693 24.6941C51.1491 24.6926 51.3274 24.7268 51.4938 24.7949C51.6603 24.863 51.8114 24.9636 51.9386 25.0907C52.0657 25.2179 52.1663 25.369 52.2344 25.5355C52.3025 25.7019 52.3367 25.8802 52.3352 26.06C52.3336 26.2398 52.2962 26.4175 52.2253 26.5827C52.1543 26.7479 52.0511 26.8973 51.9218 27.0222L31.18 47.765C31.0978 47.8462 30.3431 48.7065 28.9285 53.7457C28.6116 54.8751 28.3282 55.9747 28.107 56.8729C29.0098 56.6499 30.112 56.3665 31.2441 56.0478C36.2743 54.6359 37.1337 53.8812 37.2149 53.7999L57.9568 33.0581C58.2107 32.8041 58.5551 32.6613 58.9143 32.6612C59.2734 32.6611 59.6179 32.8037 59.872 33.0576C60.126 33.3116 60.2688 33.656 60.2688 34.0152C60.2689 34.3743 60.1263 34.7188 59.8724 34.9729L39.1297 55.7174C38.5257 56.3213 37.1662 57.2015 31.9654 58.6613C29.1984 59.4376 26.6815 59.9974 26.5759 60.0208C26.4795 60.0414 26.3811 60.0514 26.2825 60.0506Z" fill="#FEDC5A"/>
<path d="M55.1653 31.62C54.9874 31.62 54.8112 31.5849 54.6469 31.5167C54.4825 31.4486 54.3332 31.3487 54.2075 31.2228L53.7561 30.7714C53.5094 30.516 53.3729 30.174 53.376 29.8189C53.3791 29.4639 53.5215 29.1242 53.7726 28.8732C54.0237 28.6221 54.3633 28.4797 54.7184 28.4766C55.0734 28.4735 55.4155 28.61 55.6709 28.8567L56.1222 29.3081C56.3117 29.4974 56.4407 29.7386 56.4931 30.0013C56.5454 30.264 56.5186 30.5363 56.4162 30.7838C56.3138 31.0312 56.1403 31.2428 55.9176 31.3916C55.6949 31.5405 55.4331 31.62 55.1653 31.62Z" fill="#FEDC5A"/>
</g>
<defs>
<clipPath id="clip0_1056_373">
<rect width="40" height="40" fill="white" transform="translate(20.5 20)"/>
</clipPath>
</defs>
</svg>
