<svg width="81" height="80" viewBox="0 0 81 80" fill="none" xmlns="http://www.w3.org/2000/svg">
<path fill-rule="evenodd" clip-rule="evenodd" d="M40.5 80C62.5914 80 80.5 62.0914 80.5 40C80.5 17.9086 62.5914 0 40.5 0C18.4086 0 0.5 17.9086 0.5 40C0.5 62.0914 18.4086 80 40.5 80Z" fill="#F04037" fill-opacity="0.1"/>
<path d="M47.6556 25.2182C47.6556 24.546 47.1399 23.1111 45.5732 23.1111C44.6606 23.1111 43.8192 23.7096 43.5568 24.6403L35.2012 54.1959C35.1463 54.3895 35.1202 54.5846 35.1202 54.7765C35.0635 55.4573 35.6444 56.8889 37.2111 56.8889C38.1198 56.8889 38.956 56.2848 39.2184 55.357L47.574 25.8014C47.6294 25.6055 47.6556 25.4102 47.6556 25.2182ZM31.9889 32.5517C31.9889 31.3457 31.013 30.4406 29.9 30.4406C29.3655 30.4406 28.8307 30.6468 28.4234 31.0592L21.1123 38.448C20.704 38.918 20.5 39.459 20.5 39.9406C20.5 40.4222 20.704 41.0819 21.112 41.4909L28.4231 48.8798C28.8294 49.2955 29.3647 49.4406 29.9 49.4406C31.013 49.4406 31.9889 48.5348 31.9889 47.3295C31.9889 46.7893 31.7849 46.2489 31.3769 45.8365L25.5427 39.9406L31.3772 34.044C31.7865 33.6864 31.9889 33.1521 31.9889 32.5517ZM62.2778 39.9406C62.2778 39.4004 62.0738 38.86 61.6658 38.4476L54.3547 31.0588C53.9483 30.7045 53.4131 30.4406 52.8778 30.4406C51.7648 30.4406 50.7889 31.3464 50.7889 32.5517C50.7889 33.0919 50.9929 33.6323 51.4009 34.0447L57.2354 39.9413L51.4009 45.8379C50.9912 46.3069 50.7889 46.8479 50.7889 47.3295C50.7889 48.5355 51.7648 49.4406 52.8778 49.4406C53.4123 49.4406 53.947 49.2344 54.3544 48.822L61.6655 41.4332C62.0754 41.0819 62.2778 40.5409 62.2778 39.9406Z" fill="#F04037"/>
</svg>
