<svg width="81" height="80" viewBox="0 0 81 80" fill="none" xmlns="http://www.w3.org/2000/svg">
<path fill-rule="evenodd" clip-rule="evenodd" d="M40.5 80C62.5914 80 80.5 62.0914 80.5 40C80.5 17.9086 62.5914 0 40.5 0C18.4086 0 0.5 17.9086 0.5 40C0.5 62.0914 18.4086 80 40.5 80Z" fill="#F04037" fill-opacity="0.1"/>
<path d="M54.8444 44.4431L51.961 42.4095C52.2951 40.8206 52.2951 39.1795 51.961 37.5905L54.8444 35.5569C55.2027 35.3042 55.4536 34.9267 55.5478 34.4984C55.6419 34.0702 55.5726 33.6222 55.3533 33.2425L53.7788 30.5153C53.5596 30.1356 53.2063 29.8516 52.7884 29.719C52.3704 29.5865 51.918 29.615 51.52 29.799L48.3043 31.2852C47.0998 30.2017 45.6831 29.3806 44.1442 28.8741L43.8244 25.3558C43.7846 24.9191 43.5831 24.5131 43.2593 24.2174C42.9356 23.9218 42.5129 23.7578 42.0745 23.7578H38.9254C38.487 23.7578 38.0643 23.9218 37.7406 24.2174C37.4168 24.5131 37.2153 24.9192 37.1756 25.3558L36.8557 28.8741C35.3168 29.3806 33.9001 30.2017 32.6956 31.2852L29.4799 29.799C29.0819 29.615 28.6295 29.5865 28.2115 29.7191C27.7936 29.8516 27.4403 30.1356 27.2211 30.5154L25.6466 33.2425C25.4273 33.6222 25.358 34.0702 25.4521 34.4984C25.5463 34.9267 25.7972 35.3042 26.1555 35.5569L29.039 37.5906C28.7048 39.1795 28.7048 40.8205 29.039 42.4095L26.1555 44.4431C25.7972 44.6958 25.5463 45.0734 25.4521 45.5016C25.358 45.9298 25.4273 46.3778 25.6466 46.7575L27.2211 49.4847C27.4403 49.8644 27.7936 50.1484 28.2115 50.281C28.6295 50.4135 29.0819 50.385 29.4799 50.2011L32.6956 48.7148C33.9001 49.7983 35.3168 50.6195 36.8557 51.126L37.1756 54.6442C37.2153 55.0808 37.4168 55.4869 37.7406 55.7826C38.0643 56.0782 38.4869 56.2422 38.9254 56.2422H42.0745C42.513 56.2422 42.9356 56.0783 43.2594 55.7826C43.5831 55.4869 43.7847 55.0808 43.8244 54.6442L44.1442 51.126C45.6831 50.6194 47.0998 49.7984 48.3043 48.7149L51.52 50.2011C51.918 50.385 52.3704 50.4135 52.7884 50.281C53.2063 50.1484 53.5596 49.8644 53.7788 49.4847L55.3533 46.7575C55.5726 46.3778 55.6419 45.9298 55.5478 45.5016C55.4536 45.0734 55.2027 44.6958 54.8444 44.4431ZM40.5 46.0156C39.3102 46.0156 38.1471 45.6628 37.1578 45.0018C36.1686 44.3408 35.3975 43.4013 34.9422 42.3021C34.4869 41.2029 34.3678 39.9933 34.5999 38.8264C34.832 37.6595 35.405 36.5876 36.2463 35.7463C37.0876 34.905 38.1594 34.3321 39.3264 34.1C40.4933 33.8678 41.7028 33.987 42.802 34.4423C43.9012 34.8976 44.8408 35.6686 45.5018 36.6579C46.1628 37.6472 46.5156 38.8102 46.5156 40C46.5156 41.5954 45.8818 43.1255 44.7536 44.2537C43.6255 45.3818 42.0954 46.0156 40.5 46.0156Z" fill="#F04037"/>
</svg>
