<svg width="80" height="80" viewBox="0 0 80 80" fill="none" xmlns="http://www.w3.org/2000/svg">
<path fill-rule="evenodd" clip-rule="evenodd" d="M40 80C62.0914 80 80 62.0914 80 40C80 17.9086 62.0914 0 40 0C17.9086 0 0 17.9086 0 40C0 62.0914 17.9086 80 40 80Z" fill="#5454D4" fill-opacity="0.15"/>
<path d="M40.0008 23.8889C31.1171 23.8889 23.8896 31.1164 23.8896 40V46.6749C23.8896 48.3246 25.3348 49.6667 27.1119 49.6667H28.723C29.1503 49.6667 29.5601 49.497 29.8622 49.1948C30.1644 48.8927 30.3341 48.4829 30.3341 48.0556V39.7696C30.3341 39.3423 30.1644 38.9326 29.8622 38.6304C29.5601 38.3283 29.1503 38.1585 28.723 38.1585H27.2601C28.1559 31.9235 33.5209 27.1111 40.0008 27.1111C46.4806 27.1111 51.8456 31.9235 52.7414 38.1585H51.2785C50.8512 38.1585 50.4415 38.3283 50.1393 38.6304C49.8372 38.9326 49.6674 39.3423 49.6674 39.7696V49.6667C49.6674 51.4437 48.2223 52.8889 46.4452 52.8889H43.223V51.2778H36.7785V56.1111H46.4452C49.9993 56.1111 52.8896 53.2208 52.8896 49.6667C54.6667 49.6667 56.1119 48.3246 56.1119 46.6749V40C56.1119 31.1164 48.8844 23.8889 40.0008 23.8889Z" fill="#0832FF"/>
</svg>
