<svg width="30" height="27" viewBox="0 0 30 27" fill="none" xmlns="http://www.w3.org/2000/svg">
<path d="M28.3854 6.13021C28.5781 5.47917 28.3854 5 27.4583 5H24.3906C23.6094 5 23.25 5.41146 23.0573 5.86979C23.0573 5.86979 21.4948 9.67708 19.2865 12.1458C18.5729 12.8594 18.2448 13.0885 17.8542 13.0885C17.6615 13.0885 17.3646 12.8594 17.3646 12.2083V6.13021C17.3646 5.34896 17.1458 5 16.5 5H11.6771C11.1875 5 10.8958 5.36458 10.8958 5.70312C10.8958 6.44271 12 6.61458 12.1146 8.69792V13.2187C12.1146 14.2083 11.9375 14.3906 11.5469 14.3906C10.5052 14.3906 7.97396 10.5677 6.47396 6.19271C6.17188 5.34375 5.875 5 5.08854 5H2.02083C1.14583 5 0.96875 5.41146 0.96875 5.86979C0.96875 6.68229 2.01042 10.7188 5.81771 16.0521C8.35417 19.6927 11.9271 21.6667 15.1771 21.6667C17.1302 21.6667 17.3698 21.2292 17.3698 20.474C17.3698 16.9948 17.1927 16.6667 18.1719 16.6667C18.625 16.6667 19.4063 16.8958 21.2292 18.651C23.3125 20.7344 23.6563 21.6667 24.8229 21.6667H27.8906C28.7656 21.6667 29.2083 21.2292 28.9531 20.3646C28.3698 18.5469 24.4271 14.8073 24.25 14.5573C23.7969 13.974 23.9271 13.7135 24.25 13.1927C24.2552 13.1875 28 7.91667 28.3854 6.13021V6.13021Z" fill="white"/>
</svg>
